<svg width="80" height="75" viewBox="0 0 98 87">
  <g transform="matrix(1,0,0,1,0,0)" fill="#111827">
    <rect xmlns="http://www.w3.org/2000/svg" width="98" height="87" rx="10" ry="10"/>
  </g>
  <g transform="matrix(0.9988241686308309,0,0,0.9988241686308309,-0.7745436699807904,-6.592695214297745)" fill="#ffffff">
    <path xmlns="http://www.w3.org/2000/svg" d="M68.584,66.271c0.047,0,0.094-0.003,0.141-0.01l10.438-1.467l-0.008,4.728L51.74,73.376l0.01-4.729l10.721-1.507  c0.02-0.003,0.033-0.013,0.053-0.016c0.061-0.013,0.117-0.031,0.176-0.055c0.031-0.013,0.064-0.021,0.094-0.037  c0.012-0.006,0.021-0.011,0.033-0.017c0.004-0.003,0.01-0.004,0.016-0.007c0.045-0.027,0.084-0.063,0.125-0.098  c0.021-0.019,0.047-0.032,0.066-0.053c0.012-0.012,0.021-0.025,0.033-0.037c0.018-0.02,0.031-0.042,0.047-0.063  c0.031-0.041,0.066-0.079,0.09-0.124c0.012-0.021,0.018-0.044,0.027-0.065c0.004-0.006,0.006-0.012,0.008-0.018  c0.012-0.028,0.025-0.055,0.035-0.085c0.012-0.034,0.021-0.067,0.029-0.104c0.004-0.013,0.012-0.023,0.014-0.036  c0.004-0.023-0.002-0.046,0-0.069c0.004-0.035,0.016-0.07,0.016-0.106l0.025-14.485c0.002-0.29-0.125-0.566-0.344-0.756  c-0.217-0.19-0.502-0.275-0.795-0.236l-10.438,1.468l0.006-4.719l10.252-1.44l17.162-2.412l-0.008,4.719l-10.721,1.506  c-0.494,0.069-0.861,0.491-0.861,0.988L67.584,65.27c0,0.29,0.125,0.566,0.344,0.756c0.102,0.088,0.219,0.148,0.342,0.189  c0.041,0.014,0.084,0.015,0.127,0.023C68.459,66.25,68.52,66.271,68.584,66.271z M49.75,68.372L20.805,52.628l-0.006,4.473  L49.74,72.847L49.75,68.372z M50.939,66.742l8.254-1.161l-27.99-15.227l-8.258,1.161L50.939,66.742z M22.986,30.29l27.99,15.229  l26.09-3.667l-27.99-15.228L22.986,30.29z M49.787,47.148L20.846,31.402l-0.008,4.465l28.943,15.745L49.787,47.148z M32.391,48.725  L61.334,64.47l0.021-11.654l-10.438,1.468c-0.213,0.028-0.428-0.009-0.617-0.111l-17.902-9.738L32.391,48.725z M69.596,59.033  l-0.01,5.088l7.439-1.046L69.596,59.033z"/>
  </g>
</svg>
