<svg width="305" height="65" viewBox="0 0 430 87"><g transform="matrix(1,0,0,1,0,0)" fill="#111827"><rect xmlns="http://www.w3.org/2000/svg" width="98" height="87" rx="10" ry="10"></rect></g><g transform="matrix(0.9988241686308309,0,0,0.9988241686308309,-0.7745436699807904,-6.592695214297745)" fill="#ffffff"><path xmlns="http://www.w3.org/2000/svg" d="M68.584,66.271c0.047,0,0.094-0.003,0.141-0.01l10.438-1.467l-0.008,4.728L51.74,73.376l0.01-4.729l10.721-1.507  c0.02-0.003,0.033-0.013,0.053-0.016c0.061-0.013,0.117-0.031,0.176-0.055c0.031-0.013,0.064-0.021,0.094-0.037  c0.012-0.006,0.021-0.011,0.033-0.017c0.004-0.003,0.01-0.004,0.016-0.007c0.045-0.027,0.084-0.063,0.125-0.098  c0.021-0.019,0.047-0.032,0.066-0.053c0.012-0.012,0.021-0.025,0.033-0.037c0.018-0.02,0.031-0.042,0.047-0.063  c0.031-0.041,0.066-0.079,0.09-0.124c0.012-0.021,0.018-0.044,0.027-0.065c0.004-0.006,0.006-0.012,0.008-0.018  c0.012-0.028,0.025-0.055,0.035-0.085c0.012-0.034,0.021-0.067,0.029-0.104c0.004-0.013,0.012-0.023,0.014-0.036  c0.004-0.023-0.002-0.046,0-0.069c0.004-0.035,0.016-0.07,0.016-0.106l0.025-14.485c0.002-0.29-0.125-0.566-0.344-0.756  c-0.217-0.19-0.502-0.275-0.795-0.236l-10.438,1.468l0.006-4.719l10.252-1.44l17.162-2.412l-0.008,4.719l-10.721,1.506  c-0.494,0.069-0.861,0.491-0.861,0.988L67.584,65.27c0,0.29,0.125,0.566,0.344,0.756c0.102,0.088,0.219,0.148,0.342,0.189  c0.041,0.014,0.084,0.015,0.127,0.023C68.459,66.25,68.52,66.271,68.584,66.271z M49.75,68.372L20.805,52.628l-0.006,4.473  L49.74,72.847L49.75,68.372z M50.939,66.742l8.254-1.161l-27.99-15.227l-8.258,1.161L50.939,66.742z M22.986,30.29l27.99,15.229  l26.09-3.667l-27.99-15.228L22.986,30.29z M49.787,47.148L20.846,31.402l-0.008,4.465l28.943,15.745L49.787,47.148z M32.391,48.725  L61.334,64.47l0.021-11.654l-10.438,1.468c-0.213,0.028-0.428-0.009-0.617-0.111l-17.902-9.738L32.391,48.725z M69.596,59.033  l-0.01,5.088l7.439-1.046L69.596,59.033z"></path></g><g transform="matrix(2.6258706089710544,0,0,2.6258706089710544,116.35883086939309,4.8706469551447285)" fill="#111827"><path d="M4.9902 20.19531 c-2.2559 0 -4.0039 -0.88867 -4.3652 -2.793 l2.3535 -0.66406 c0.30273 1.0742 1.0645 1.4941 2.0117 1.4941 c0.69336 0 1.4453 -0.21484 1.4258 -1.0059 c-0.0097656 -1.0449 -1.5918 -1.1328 -3.1836 -1.6992 c-1.2012 -0.41992 -2.3535 -1.0645 -2.3535 -2.7539 c0 -2.0605 1.709 -3.0078 3.9355 -3.0078 c1.9531 0 3.584 0.74219 3.9746 2.6563 l-2.1777 0.48828 c-0.30273 -0.9375 -0.9668 -1.2695 -1.7871 -1.2695 c-0.74219 0 -1.377 0.26367 -1.377 0.88867 c0 0.79102 1.1621 0.94727 2.4219 1.2891 c1.5527 0.41992 3.252 1.0938 3.252 3.2422 c0 2.3047 -1.9629 3.1348 -4.1309 3.1348 z M19.375 17.2754 c0 1.2305 0.11719 2.0117 0.24414 2.4512 l0 0.27344 l-2.627 0 l-0.22461 -1.0938 c-0.75195 0.9082 -2.0508 1.2891 -3.2227 1.2891 c-1.582 0 -3.125 -0.70313 -3.125 -2.793 c0 -2.0801 1.5527 -2.7832 3.6523 -3.2422 l1.6504 -0.37109 c0.71289 -0.16602 0.9668 -0.41016 0.9668 -0.82031 c0 -0.98633 -0.89844 -1.2598 -1.6895 -1.2598 c-1.0156 0 -1.7871 0.40039 -1.9629 1.5332 l-2.4902 -0.44922 c0.41992 -2.0801 1.9434 -3.0273 4.6094 -3.0273 c2.0117 0 4.2188 0.5957 4.2188 3.623 l0 3.8867 z M14.4238 18.291 c1.3379 0 2.4121 -0.88867 2.4121 -2.8809 l-2.3828 0.67383 c-0.78125 0.18555 -1.3477 0.45898 -1.3477 1.1328 c0 0.72266 0.5957 1.0742 1.3184 1.0742 z M34.004296875 9.766 c2.1484 0 3.5352 1.0938 3.5352 3.1543 l0 7.0801 l-2.8125 0 l0 -6.2793 c0 -1.1816 -0.74219 -1.6992 -1.582 -1.6992 c-1.0059 0 -1.8945 0.57617 -1.8945 2.3145 l0 5.6641 l-2.8418 0 l0 -6.25 c0 -1.2012 -0.72266 -1.7285 -1.6113 -1.7285 c-0.97656 0 -1.8848 0.57617 -1.8848 2.4609 l0 5.5176 l-2.8027 0 l0 -10.039 l2.8027 0 l0 1.1816 c0.66406 -0.88867 1.6797 -1.377 2.9102 -1.377 c1.4551 0 2.5488 0.52734 3.0762 1.5039 c0.70313 -1.0059 1.7773 -1.5039 3.1055 -1.5039 z M46.162159375 9.766 c2.6465 0 4.834 1.9434 4.834 5.2344 s-2.1875 5.2344 -4.834 5.2344 c-1.3086 0 -2.4805 -0.50781 -3.0762 -1.4258 l0 6.0742 l-2.8125 0 l0 -14.922 l2.666 0 l0.078125 1.3477 c0.55664 -0.99609 1.7773 -1.543 3.1445 -1.543 z M45.527359375 17.9004 c1.4746 0 2.6563 -1.0742 2.6563 -2.9004 s-1.1816 -2.9004 -2.6563 -2.9004 c-1.5039 0 -2.6758 1.1426 -2.6758 2.9004 s1.1719 2.9004 2.6758 2.9004 z M53.11525625 20 l0 -15 l2.8418 0 l0 15 l-2.8418 0 z M68.310109375 14.834 l-0.029297 0.67383 l-7.4414 0 c0.11719 1.6699 1.2305 2.4707 2.5684 2.4707 c1.0059 0 1.7871 -0.46875 2.168 -1.3574 l2.5781 0.38086 c-0.66406 2.0313 -2.4707 3.1934 -4.7266 3.1934 c-3.2422 0 -5.3613 -1.9141 -5.3613 -5.2148 s2.1777 -5.2344 5.2734 -5.2344 c2.8418 0 4.9609 1.5723 4.9707 5.0879 z M63.359409375 11.7383 c-1.2793 0 -2.168 0.5957 -2.4414 1.9336 l4.6094 0 c-0.14648 -1.2793 -1.0156 -1.9336 -2.168 -1.9336 z M76.337940625 9.766 c2.6465 0 4.834 1.9434 4.834 5.2344 s-2.1875 5.2344 -4.834 5.2344 c-1.3086 0 -2.4805 -0.50781 -3.0762 -1.4258 l0 6.0742 l-2.8125 0 l0 -14.922 l2.666 0 l0.078125 1.3477 c0.55664 -0.99609 1.7773 -1.543 3.1445 -1.543 z M75.703140625 17.9004 c1.4746 0 2.6563 -1.0742 2.6563 -2.9004 s-1.1816 -2.9004 -2.6563 -2.9004 c-1.5039 0 -2.6758 1.1426 -2.6758 2.9004 s1.1719 2.9004 2.6758 2.9004 z M91.5234375 17.2754 c0 1.2305 0.11719 2.0117 0.24414 2.4512 l0 0.27344 l-2.627 0 l-0.22461 -1.0938 c-0.75195 0.9082 -2.0508 1.2891 -3.2227 1.2891 c-1.582 0 -3.125 -0.70313 -3.125 -2.793 c0 -2.0801 1.5527 -2.7832 3.6523 -3.2422 l1.6504 -0.37109 c0.71289 -0.16602 0.9668 -0.41016 0.9668 -0.82031 c0 -0.98633 -0.89844 -1.2598 -1.6895 -1.2598 c-1.0156 0 -1.7871 0.40039 -1.9629 1.5332 l-2.4902 -0.44922 c0.41992 -2.0801 1.9434 -3.0273 4.6094 -3.0273 c2.0117 0 4.2188 0.5957 4.2188 3.623 l0 3.8867 z M86.5722375 18.291 c1.3379 0 2.4121 -0.88867 2.4121 -2.8809 l-2.3828 0.67383 c-0.78125 0.18555 -1.3477 0.45898 -1.3477 1.1328 c0 0.72266 0.5957 1.0742 1.3184 1.0742 z M97.998034375 20 c-1.9531 0 -3.0664 -1.1328 -3.0664 -3.1348 l0 -4.7461 l-1.9727 0 l0 -2.1582 l0.63477 0 c1.0645 0 1.6504 -0.41016 1.6504 -1.9141 l0 -1.3281 l2.5391 0 l0 3.2422 l2.0703 0 l0 2.1582 l-2.0703 0 l0 4.4434 c0 0.89844 0.43945 1.2988 1.1621 1.2988 l0.9082 0 l0 2.1387 l-1.8555 0 z M108.105471875 9.766 c2.2461 0 3.5938 1.25 3.5938 3.7598 l0 6.4746 l-2.8223 0 l0 -6.0156 c0 -1.4746 -0.82031 -1.9629 -1.8262 -1.9629 c-1.0449 0 -2.1875 0.51758 -2.207 2.4414 l0 5.5371 l-2.8125 0 l0 -15 l2.8125 0 l0 6.1621 c0.71289 -0.86914 1.8359 -1.3965 3.2617 -1.3965 z"></path></g></svg>